<?xml version="1.0" encoding="UTF-8" standalone="no"?>
<svg
   xmlns:ooo="http://xml.openoffice.org/svg/export"
   xmlns:dc="http://purl.org/dc/elements/1.1/"
   xmlns:cc="http://creativecommons.org/ns#"
   xmlns:rdf="http://www.w3.org/1999/02/22-rdf-syntax-ns#"
   xmlns:svg="http://www.w3.org/2000/svg"
   xmlns="http://www.w3.org/2000/svg"
   xmlns:sodipodi="http://sodipodi.sourceforge.net/DTD/sodipodi-0.dtd"
   xmlns:inkscape="http://www.inkscape.org/namespaces/inkscape"
   style="fill-rule:evenodd;stroke-width:28.22200012;stroke-linejoin:round"
   id="svg2"
   xml:space="preserve"
   preserveAspectRatio="xMidYMid"
   viewBox="0 0 3104.4443 3104.4445"
   height="110"
   width="110"
   version="1.2"
   inkscape:version="0.91 r13725"
   sodipodi:docname="myhome_icon.svg"><sodipodi:namedview
     pagecolor="#ffffff"
     bordercolor="#666666"
     borderopacity="1"
     objecttolerance="10"
     gridtolerance="10"
     guidetolerance="10"
     inkscape:pageopacity="0"
     inkscape:pageshadow="2"
     inkscape:window-width="1600"
     inkscape:window-height="837"
     id="namedview63"
     showgrid="false"
     inkscape:zoom="4.2909091"
     inkscape:cx="55"
     inkscape:cy="39.469334"
     inkscape:window-x="-8"
     inkscape:window-y="-8"
     inkscape:window-maximized="1"
     inkscape:current-layer="svg2" /><metadata
     id="metadata109"><rdf:RDF><cc:Work
         rdf:about=""><dc:format>image/svg+xml</dc:format><dc:type
           rdf:resource="http://purl.org/dc/dcmitype/StillImage" /><dc:title /></cc:Work></rdf:RDF></metadata><defs
     id="defs4"
     class="ClipPathGroup"><clipPath
       clipPathUnits="userSpaceOnUse"
       id="presentation_clip_path"><rect
         id="rect7"
         height="29700"
         width="21000"
         y="0"
         x="0" /></clipPath><clipPath
       clipPathUnits="userSpaceOnUse"
       id="presentation_clip_path_shrink"><rect
         id="rect10"
         height="29641"
         width="20958"
         y="29"
         x="21" /></clipPath></defs><defs
     id="defs12"
     class="TextShapeIndex"><g
       id="g14"
       ooo:id-list="id3 id4 id5 id6 id7 id8"
       ooo:slide="id1" /></defs><defs
     id="defs16"
     class="EmbeddedBulletChars"><g
       transform="scale(4.8828125e-4,-4.8828125e-4)"
       id="bullet-char-template(57356)"><path
         id="path19"
         d="M 580,1141 1163,571 580,0 -4,571 580,1141 Z" /></g><g
       transform="scale(4.8828125e-4,-4.8828125e-4)"
       id="bullet-char-template(57354)"><path
         id="path22"
         d="m 8,1128 1129,0 L 1137,0 8,0 8,1128 Z" /></g><g
       transform="scale(4.8828125e-4,-4.8828125e-4)"
       id="bullet-char-template(10146)"><path
         id="path25"
         d="M 174,0 602,739 174,1481 1456,739 174,0 Z m 1184,739 -1049,607 350,-607 699,0 z" /></g><g
       transform="scale(4.8828125e-4,-4.8828125e-4)"
       id="bullet-char-template(10132)"><path
         id="path28"
         d="M 2015,739 1276,0 717,0 l 543,543 -1086,0 0,393 1086,0 -543,545 557,0 741,-742 z" /></g><g
       transform="scale(4.8828125e-4,-4.8828125e-4)"
       id="bullet-char-template(10007)"><path
         id="path31"
         d="m 0,-2 c -7,16 -16,29 -25,39 l 381,530 c -94,256 -141,385 -141,387 0,25 13,38 40,38 9,0 21,-2 34,-5 21,4 42,12 65,25 l 27,-13 111,-251 280,301 64,-25 24,25 c 21,-10 41,-24 62,-43 C 886,937 835,863 770,784 769,783 710,716 594,584 L 774,223 c 0,-27 -21,-55 -63,-84 l 16,-20 C 717,90 699,76 672,76 641,76 570,178 457,381 L 164,-76 c -22,-34 -53,-51 -92,-51 -42,0 -63,17 -64,51 -7,9 -10,24 -10,44 0,9 1,19 2,30 z" /></g><g
       transform="scale(4.8828125e-4,-4.8828125e-4)"
       id="bullet-char-template(10004)"><path
         id="path34"
         d="M 285,-33 C 182,-33 111,30 74,156 52,228 41,333 41,471 c 0,78 14,145 41,201 34,71 87,106 158,106 53,0 88,-31 106,-94 l 23,-176 c 8,-64 28,-97 59,-98 l 735,706 c 11,11 33,17 66,17 42,0 63,-15 63,-46 l 0,-122 c 0,-36 -10,-64 -30,-84 L 442,47 C 390,-6 338,-33 285,-33 Z" /></g><g
       transform="scale(4.8828125e-4,-4.8828125e-4)"
       id="bullet-char-template(9679)"><path
         id="path37"
         d="M 813,0 C 632,0 489,54 383,161 276,268 223,411 223,592 c 0,181 53,324 160,431 106,107 249,161 430,161 179,0 323,-54 432,-161 108,-107 162,-251 162,-431 0,-180 -54,-324 -162,-431 C 1136,54 992,0 813,0 Z" /></g><g
       transform="scale(4.8828125e-4,-4.8828125e-4)"
       id="bullet-char-template(8226)"><path
         id="path40"
         d="m 346,457 c -73,0 -137,26 -191,78 -54,51 -81,114 -81,188 0,73 27,136 81,188 54,52 118,78 191,78 73,0 134,-26 185,-79 51,-51 77,-114 77,-187 0,-75 -25,-137 -76,-188 -50,-52 -112,-78 -186,-78 z" /></g><g
       transform="scale(4.8828125e-4,-4.8828125e-4)"
       id="bullet-char-template(8211)"><path
         id="path43"
         d="m -4,459 1139,0 0,147 -1139,0 0,-147 z" /></g><g
       transform="scale(4.8828125e-4,-4.8828125e-4)"
       id="bullet-char-template(61548)"><path
         id="path46"
         d="m 173,740 c 0,163 58,303 173,419 116,115 255,173 419,173 163,0 302,-58 418,-173 116,-116 174,-256 174,-419 0,-163 -58,-303 -174,-418 C 1067,206 928,148 765,148 601,148 462,206 346,322 231,437 173,577 173,740 Z" /></g></defs><defs
     id="defs48"
     class="TextEmbeddedBitmaps" /><g
     transform="translate(0,-26595.556)"
     id="g50"><g
       class="Master_Slide"
       id="id2"><g
         class="Background"
         id="bg-id2" /><g
         class="BackgroundObjects"
         id="bo-id2" /></g></g><g
     class="com.sun.star.drawing.PolyPolygonShape"
     id="g63"
     transform="matrix(0.97458138,0,0,1.040957,-7268.2143,-15258.58)"><g
       id="id3"><path
         inkscape:connector-curvature="0"
         id="rect66"
         d="m 7494,14693 3114,0 0,2915 -3114,0 z"
         style="fill:none;stroke:none" /><path
         inkscape:connector-curvature="0"
         d="m 9047,16722 0,778 1454,0 0,-2144 -1451,-557 -1450,557 0,2144 996.6232,0"
         id="path68"
         style="fill:none;stroke:#ffffff;stroke-width:282.65625;stroke-linecap:round;stroke-linejoin:round;stroke-miterlimit:4;stroke-dasharray:none;stroke-opacity:1"
         sodipodi:nodetypes="cccccccc" /></g></g><g
     class="com.sun.star.drawing.PolyPolygonShape"
     id="g70"
     transform="matrix(0.99693148,0,0,1,-7471.0045,-14503.553)"><g
       id="id4"><path
         inkscape:connector-curvature="0"
         id="rect73"
         d="m 7494,17394 213,0 0,213 -213,0 z"
         style="fill:none;stroke:none" /></g></g><g
     class="com.sun.star.drawing.PolyPolygonShape"
     id="g75"
     transform="matrix(0.99693148,0,0,1,-7471.0045,-14503.553)"><g
       id="id5"><path
         inkscape:connector-curvature="0"
         id="rect78"
         d="m 10395,14693 213,0 0,213 -213,0 z"
         style="fill:none;stroke:none" /></g></g><g
     class="com.sun.star.drawing.ClosedBezierShape"
     id="g80"
     transform="matrix(0.99693148,0,0,1,-7471.0045,-14616.441)"><g
       id="id6"><path
         inkscape:connector-curvature="0"
         id="rect83"
         d="m 8699,16399 704,0 0,704 -704,0 z"
         style="fill:none;stroke:none" /><path
         inkscape:connector-curvature="0"
         d="m 9050,16400 c 198,0 350,152 350,350 0,198 -152,350 -350,350 -198,0 -350,-152 -350,-350 0,-198 152,-350 350,-350 z m -350,0 0,0 z m 701,701 0,0 z"
         id="path85"
         style="fill:#ffffff;stroke:none;fill-opacity:1;stroke-opacity:1" /><path
         inkscape:connector-curvature="0"
         d="m 9050,16400 c 198,0 350,152 350,350 0,198 -152,350 -350,350 -198,0 -350,-152 -350,-350 0,-198 152,-350 350,-350 z"
         id="path87"
         style="fill:none;stroke:#ffffff;stroke-opacity:1" /><path
         inkscape:connector-curvature="0"
         d="m 8700,16400 0,0 z"
         id="path89"
         style="fill:none;stroke:#000000" /><path
         inkscape:connector-curvature="0"
         d="m 9401,17101 0,0 z"
         id="path91"
         style="fill:none;stroke:#000000" /></g></g><g
     class="com.sun.star.drawing.EllipseShape"
     id="g93"
     transform="matrix(0.99693148,0,0,1,-7471.0045,-14503.553)"><g
       id="id7"><path
         inkscape:connector-curvature="0"
         id="rect96"
         d="m 8460,15994 1181,0 0,428 -1181,0 z"
         style="fill:none;stroke:none" /><path
         inkscape:connector-curvature="0"
         d="m 8567,16201.112 c 3,-5 7,-9 11,-14 50,-64 113,-110 201,-146 88,-37 174,-54 275,-54 101,0 187,17 275,54 88,36 151,82 201,146 1,1 2,2 3,4"
         id="path98"
         style="fill:none;stroke:#ffffff;stroke-width:282.65625;stroke-linejoin:round;stroke-miterlimit:4;stroke-dasharray:none;stroke-opacity:1" /></g></g><g
     class="com.sun.star.drawing.EllipseShape"
     id="g100"
     transform="matrix(0.99693148,0,0,1,-7471.0045,-14616.441)"><g
       id="id8"><path
         inkscape:connector-curvature="0"
         id="rect103"
         d="m 8147,15594 1807,0 0,564 -1807,0 z"
         style="fill:none;stroke:none" /><path
         inkscape:connector-curvature="0"
         d="m 8254,16051 c 6,-9 11,-16 18,-24 82,-104 186,-179 329,-239 143,-61 284,-88 450,-88 166,0 307,27 450,88 143,60 247,135 329,239 6,8 11,14 17,22"
         id="path105"
         style="fill:none;stroke:#ffffff;stroke-width:282.65625;stroke-linejoin:miter;stroke-miterlimit:4;stroke-dasharray:none;stroke-opacity:1" /></g></g></svg>